# xmcd
#
# Track frame offsets:
#	150
#	15672
#	28952
#	43990
#	61203
#	82206
#	98790
#	112092
#	126362
#	142591
#	160775
#	175546
#	186511
#	205514
#	224228
#
# Disc length: 3184 seconds
# Revision: 3
# Processed by: cddbd v1.5.2PL0 Copyright (c) Steve Scherf et al.
# Submitted via: dBpowerAMP V12.0
#
DISCID=db0c6e0f
DTITLE=Various Artist - CMAA Winners 2011
DYEAR=2011
DGENRE=Country
TTITLE0=Kasey Chambers - Little Bird
TTITLE1=Adam Brand - It's Gonna Be OK
TTITLE2=The Sunny Cowgirls - Summer
TTITLE3=Luke Austen - She's So You
TTITLE4=Graeme Connors - A Good Life
TTITLE5=The McClymonts - Wrapped Up Good
TTITLE6=Catherine Britt - Can't Change a Thing
TTITLE7=Peter McWirter - I Will Stand By You
TTITLE8=Markus Meier - A Different Land
TTITLE9=McAlister Kemp - All Kinds of Tough
TTITLE10=Melinda Schneider - The Deadwood Stage
TTITLE11=Dianna Corcoran - Thank You For Cheating on Me
TTITLE12=Tracy Killeen - Brave
TTITLE13=Sara Storer and Kev Carmody - Children of The Gurindji
TTITLE14=Adam Harvey and Troy Cassar Daley - Sevem Spanish Angels
EXTD=
EXTT0=
EXTT1=
EXTT2=
EXTT3=
EXTT4=
EXTT5=
EXTT6=
EXTT7=
EXTT8=
EXTT9=
EXTT10=
EXTT11=
EXTT12=
EXTT13=
EXTT14=
PLAYORDER=
